<mxfile host="app.diagrams.net" modified="2023-05-14T02:31:51.053Z" agent="Mozilla/5.0 (Windows NT 10.0; Win64; x64) AppleWebKit/537.36 (KHTML, like Gecko) Chrome/113.0.0.0 Safari/537.36 Edg/113.0.1774.42" version="21.2.9" etag="jt3Vky-xor6XUVd5YDw0" type="github">
  <diagram name="第 1 页" id="IzP1_a8ajI2uSlRTaGuz">
    <mxGraphModel>
      <root>
        <mxCell id="0" />
        <mxCell id="1" parent="0" />
      </root>
    </mxGraphModel>
  </diagram>
</mxfile>
